<svg viewBox="0 0 500 500">
  <g transform="matrix(1.255538, 0, 0, 1.255538, -9.357745, -3.628706)">
    <path d="M 116.755 102.008 A 42.184 42.184 0 0 1 74.571 144.192 A 42.184 42.184 0 0 1 32.387 102.008 A 42.184 42.184 0 0 1 74.571 59.824 A 42.184 42.184 0 0 1 116.755 102.008 Z" style="stroke: rgb(255, 255, 255); stroke-width: 0px; paint-order: stroke;"/>
    <path d="M 313.755 102.008 A 42.184 42.184 0 0 1 271.571 144.192 A 42.184 42.184 0 0 1 229.387 102.008 A 42.184 42.184 0 0 1 271.571 59.824 A 42.184 42.184 0 0 1 313.755 102.008 Z" style="stroke: rgb(255, 255, 255); stroke-width: 0px; paint-order: stroke;"/>
    <path d="M 74.569 59.827 H 270.565 V 144.182 H 74.569 V 59.827 Z" style="stroke: rgb(255, 255, 255); stroke-width: 0px; paint-order: stroke;"/>
    <path d="M 116.755 202.008 A 42.184 42.184 0 0 1 74.571 244.192 A 42.184 42.184 0 0 1 32.387 202.008 A 42.184 42.184 0 0 1 74.571 159.824 A 42.184 42.184 0 0 1 116.755 202.008 Z" style="stroke: rgb(0, 0, 0); paint-order: stroke; stroke-width: 0px;"/>
    <path d="M 380.755 202.008 A 42.184 42.184 0 0 1 338.571 244.192 A 42.184 42.184 0 0 1 296.387 202.008 A 42.184 42.184 0 0 1 338.571 159.824 A 42.184 42.184 0 0 1 380.755 202.008 Z" style="stroke: rgb(0, 0, 0); paint-order: stroke; stroke-width: 0px;"/>
    <path d="M 74.569 159.827 H 338.38 V 244.182 H 74.569 V 159.827 Z" style="stroke: rgb(0, 0, 0); paint-order: stroke; stroke-width: 0px;"/>
    <path d="M 116.755 302.008 A 42.184 42.184 0 0 1 74.571 344.192 A 42.184 42.184 0 0 1 32.387 302.008 A 42.184 42.184 0 0 1 74.571 259.824 A 42.184 42.184 0 0 1 116.755 302.008 Z" style="stroke: rgb(0, 0, 0); paint-order: stroke; stroke-width: 0px;"/>
    <path d="M 313.755 302.008 A 42.184 42.184 0 0 1 271.571 344.192 A 42.184 42.184 0 0 1 229.387 302.008 A 42.184 42.184 0 0 1 271.571 259.824 A 42.184 42.184 0 0 1 313.755 302.008 Z" style="stroke: rgb(0, 0, 0); paint-order: stroke; stroke-width: 0px;"/>
    <path d="M 74.569 259.827 H 270.565 V 344.182 H 74.569 V 259.827 Z" style="stroke: rgb(0, 0, 0); paint-order: stroke; stroke-width: 0px;"/>
  </g>
</svg>