<?xml version="1.0" encoding="UTF-8"?>
<svg xmlns="http://www.w3.org/2000/svg" xmlns:xlink="http://www.w3.org/1999/xlink" width="240px" height="240px" viewBox="0 0 240 240" version="1.1">
<g id="surface1">
<path style=" stroke:none;fill-rule:nonzero;fill:rgb(92.941176%,94.901961%,97.647059%);fill-opacity:1;" d="M 120 40 C 92.429688 40 70 62.429688 70 90 L 90 90 C 90 73.460938 103.460938 60 120 60 C 136.539062 60 150 73.460938 150 90 C 150 100.691406 145.460938 104.648438 135.191406 112.550781 C 131.371094 115.488281 127.058594 118.808594 122.929688 122.929688 C 109.808594 136.039062 109.949219 148.96875 110 150 L 110 170 L 130 170 L 130 149.910156 C 130 149.671875 130.230469 143.898438 137.070312 137.070312 C 140.269531 133.871094 143.890625 131.089844 147.378906 128.398438 C 157.980469 120.238281 170 111 170 90 C 170 62.429688 147.570312 40 120 40 Z M 110 180 L 130 180 L 130 200 L 110 200 Z M 110 180 "/>
</g>
</svg>
